<svg width="10" height="14" viewBox="0 0 10 14" fill="none" xmlns="http://www.w3.org/2000/svg">
<path fill-rule="evenodd" clip-rule="evenodd" d="M1.76509 13.6673H8.25265L9.06857 5.70466H0.985967L1.76509 13.6673ZM6.8217 2.31455V0.788853C6.8217 0.537425 6.62673 0.333984 6.38688 0.333984H3.63198C3.39177 0.333984 3.19755 0.537806 3.19755 0.788853V2.28941C2.26686 2.39913 1.29827 2.6117 0.333008 2.97475V4.37588H9.66634V2.93741C9.66634 2.93741 8.52709 2.52636 6.82095 2.31455H6.8217ZM5.95575 2.23075C5.35173 2.18846 4.70062 2.17703 4.01751 2.2178V1.41323C4.01751 1.28827 4.11313 1.18617 4.23379 1.18617H5.73761C5.859 1.18617 5.95575 1.28827 5.95575 1.41323V2.23075Z" fill="#5A5552"/>
</svg>
