<svg width="8" height="20" viewBox="0 0 8 20" fill="none" xmlns="http://www.w3.org/2000/svg">
<path fill-rule="evenodd" clip-rule="evenodd" d="M0 17.3331H3.04851V20H0V17.3331ZM4.95285 0H8V2.66687H4.95285V0ZM4.95285 4.33315H8V7H4.95285V4.33315ZM4.95285 8.66687H8V11.3331H4.95285V8.66687ZM4.95285 13H8V15.6669H4.95285V13ZM4.95285 17.3331H8V20H4.95285V17.3331ZM0 0H3.04851V2.66687H0V0ZM0 4.33315H3.04851V7H0V4.33315ZM0 8.66687H3.04851V11.3331H0V8.66687ZM0 13H3.04851V15.6669H0V13Z" fill="white"/>
</svg>
