<svg width="49" height="35" viewBox="0 0 49 35" fill="none" xmlns="http://www.w3.org/2000/svg">
<path d="M38.0055 34.5H30.2474H28.1584H27.7072V24.3697H31.1105C31.9736 24.3697 32.4837 23.4149 31.9736 22.7275L25.3533 13.8097C24.9315 13.2369 24.0586 13.2369 23.6369 13.8097L17.0166 22.7275C16.5065 23.4149 17.0067 24.3697 17.8796 24.3697H21.283V34.5H20.8318H18.7427H9.74888C4.59971 34.2231 0.5 29.5351 0.5 24.4556C0.5 20.9516 2.45178 17.8962 5.34512 16.2445C5.0803 15.5475 4.94299 14.8027 4.94299 14.0198C4.94299 10.4393 7.91479 7.54633 11.5928 7.54633C12.3872 7.54633 13.1522 7.68001 13.8682 7.9378C15.9965 3.54577 20.5866 0.5 25.9221 0.5C32.8269 0.509548 38.5155 5.65586 39.1629 12.2152C44.4689 13.1032 48.5 17.8867 48.5 23.3003C48.5 29.0864 43.8707 34.099 38.0055 34.5Z" fill="#3F7BD4"/>
</svg>
